HIERARCHY
ROOT Hips
{
    OFFSET 0.0 0.0 0.0
    CHANNELS 6 Xposition Yposition Zposition Zrotation Xrotation Yrotation
    JOINT LeftUpLeg
    {
        OFFSET 12.857712840939525 0.0 0.0
        CHANNELS 3 Zrotation Xrotation Yrotation
        JOINT LeftLeg
        {
            OFFSET 0.0 0.0 -59.204005372134674
            CHANNELS 3 Zrotation Xrotation Yrotation
            JOINT LeftFoot
            {
                OFFSET 0.0 0.0 -47.00344139639421
                CHANNELS 3 Zrotation Xrotation Yrotation
                JOINT LeftToeBase
                {
                    OFFSET 0.0 -12.156475608546437 0.0
                    CHANNELS 3 Zrotation Xrotation Yrotation
                    End Site
                    {
                        OFFSET 0 0 0
                    }
                }
            }
        }
    }
    JOINT RightUpLeg
    {
        OFFSET -12.857712840939525 0.0 0.0
        CHANNELS 3 Zrotation Xrotation Yrotation
        JOINT RightLeg
        {
            OFFSET 0.0 0.0 -59.204005372134674
            CHANNELS 3 Zrotation Xrotation Yrotation
            JOINT RightFoot
            {
                OFFSET 0.0 0.0 -47.00344139639421
                CHANNELS 3 Zrotation Xrotation Yrotation
                JOINT RightToeBase
                {
                    OFFSET 0.0 -12.156475608546437 0.0
                    CHANNELS 3 Zrotation Xrotation Yrotation
                    End Site
                    {
                        OFFSET 0 0 0
                    }
                }
            }
        }
    }
    JOINT Spine
    {
        OFFSET 0.0 0.0 12.088784493075387
        CHANNELS 3 Zrotation Xrotation Yrotation
        JOINT Spine1
        {
            OFFSET 0.0 0.0 11.867783987843383
            CHANNELS 3 Zrotation Xrotation Yrotation
            JOINT Spine2
            {
                OFFSET 0.0 0.0 11.867783987843385
                CHANNELS 3 Zrotation Xrotation Yrotation
                JOINT Spine3
                {
                    OFFSET 0.0 0.0 11.867783987843378
                    CHANNELS 3 Zrotation Xrotation Yrotation
                    JOINT Spine4
                    {
                        OFFSET 0.0 0.0 11.867783987843389
                        CHANNELS 3 Zrotation Xrotation Yrotation
                        JOINT RightShoulder
                        {
                            OFFSET -21.40493613191613 0.0 0.0
                            CHANNELS 3 Zrotation Xrotation Yrotation
                            JOINT RightArm
                            {
                                OFFSET -37.61970332749618 0.0 0.0
                                CHANNELS 3 Zrotation Xrotation Yrotation
                                JOINT RightForeArm
                                {
                                    OFFSET -33.31934752120898 0.0 0.0
                                    CHANNELS 3 Zrotation Xrotation Yrotation
                                    JOINT RightHand
                                    {
                                        OFFSET -12.375204394355174 0.0 0.0
                                        CHANNELS 3 Zrotation Xrotation Yrotation
                                        End Site
                                        {
                                            OFFSET 0 0 0
                                        }
                                    }
                                }
                            }
                        }
                        JOINT LeftShoulder
                        {
                            OFFSET 21.40493613191613 0.0 0.0
                            CHANNELS 3 Zrotation Xrotation Yrotation
                            JOINT LeftArm
                            {
                                OFFSET 37.61970332749618 0.0 0.0
                                CHANNELS 3 Zrotation Xrotation Yrotation
                                JOINT LeftForeArm
                                {
                                    OFFSET 33.31934752120898 0.0 0.0
                                    CHANNELS 3 Zrotation Xrotation Yrotation
                                    JOINT LeftHand
                                    {
                                        OFFSET 12.375204394355174 0.0 0.0
                                        CHANNELS 3 Zrotation Xrotation Yrotation
                                        End Site
                                        {
                                            OFFSET 0 0 0
                                        }
                                    }
                                }
                            }
                        }
                        JOINT Neck
                        {
                            OFFSET 0.0 0.0 11.867784066360093
                            CHANNELS 3 Zrotation Xrotation Yrotation
                            JOINT Head
                            {
                                OFFSET 0.0 0.0 25.197884113712472
                                CHANNELS 3 Zrotation Xrotation Yrotation
                                End Site
                                {
                                    OFFSET 0 0 0
                                }
                            }
                        }
                    }
                }
            }
        }
    }
}
MOTION
Frames: 9
Frame Time: 0.03333333333333333
38.227310156822206 3.277462930977345 436.4270256042481 20.092459844349687 -77.16039611650666 18.14865450612575 1.124458725683066 -10.529879394799744 -15.77398761574692 -1.8190528703344246 0.9245050416379037 26.791177388498784 163.16267430719313 -9.54166404439055e-15 62.04190873410681 0.0 0.0 0.0 -0.010265756244929815 -11.25481077895145 10.470841971468477 -16.696780904246666 -12.930782986508229 -21.955477601273735 97.30415496942385 -3.1805546814635168e-15 -81.20596685931719 0.0 0.0 0.0 1.200427304024524 -14.39639791430525 1.8769412493604076 -3.975693351829396e-16 0.0 0.0 -3.975693351829396e-16 0.0 0.0 -3.975693351829396e-16 0.0 0.0 -3.975693351829396e-16 0.0 0.0 -170.0131639279881 6.489926306910909 171.16924487455532 39.636645756293625 -2.5333972938308678e-14 1.5891525964643278e-14 1.1049202703941628e-14 60.11282350128897 -6.393773372981176e-15 0.0 0.0 0.0 164.1026928793757 -16.676916293224124 -175.82642613833386 -48.716195818899834 -1.2155103522907016e-14 -3.757417529620939e-15 -180.0 -46.08932901744798 180.0 2.2069531490250793e-32 3.1805546814635164e-15 -7.951386703658791e-16 -9.507820760192887 -4.69670799099587e-15 -7.895308546419057e-16 0.0 -6.373533404651502e-15 0.0
37.44223076105118 2.874613367021084 436.63055477142336 19.626803044672172 -77.7588665014409 17.386743491661974 0.07873915863716757 -9.1035312327268 -19.283432983575036 5.118933241513052 -2.2466183030178644 24.088009248936892 155.3454243054116 3.1805546814635168e-15 43.40008612516847 0.0 0.0 3.1805546814635168e-15 -0.22979310244638287 -10.921432446231753 10.670767776555563 -16.451257213374866 -12.582195001529756 -22.035396626022678 98.45029558266708 -3.1805546814635168e-15 -81.26485099789139 0.0 0.0 0.0 1.1412578664200574 -13.87291936948924 1.604646546868842 0.0 0.0 0.0 0.0 0.0 0.0 0.0 0.0 0.0 0.0 0.0 0.0 -169.6727395541455 6.169097535600312 170.8294157981616 39.657384218728836 -1.1126436187980085e-14 4.012058648210611e-15 -1.5792095968992597e-15 64.21563967647668 8.500663342360995e-15 1.5902773407317584e-15 0.0 0.0 164.0723404473491 -15.05370561832872 -175.87758326836132 -48.176872674062416 -9.2551646574005e-15 -4.1377937465571135e-15 -180.0 -51.5842118416154 -180.0 0.0 0.0 7.951386703658792e-16 -8.870333481855749 7.367183017568972e-15 7.708043429305439e-16 -3.975693351829396e-16 0.0 0.0
36.67477494478226 2.3969304218888285 436.8350137710571 19.39236252434215 -78.30766270842506 16.915427935512685 -1.4494714425098105 -7.243789811275378 -23.465884028601792 12.05326424975817 -4.330175648587786 23.901091691622188 142.44248796430395 -1.749305074804934e-14 28.054174071829404 -1.1927080055488188e-15 0.0 0.0 -0.40586200879784534 -10.547109730857635 11.01123805662679 -16.173432035673187 -12.116855504037012 -22.2941837690303 99.52378507113075 0.0 -81.03808556180326 0.0 0.0 0.0 1.0613968186614204 -13.357032351998797 1.3426558991380872 0.0 0.0 0.0 0.0 0.0 0.0 0.0 0.0 0.0 0.0 0.0 0.0 -169.39738021726674 5.344794633873479 170.63210638728876 39.96587250129785 -9.680603606626898e-16 3.736327588996541e-15 7.258229074169066e-15 68.80425052516438 -4.97020863122204e-15 -7.951386703658792e-16 0.0 0.0 163.77147279282892 -12.958842657076712 -175.80939358647367 -47.34661260017362 -3.4550883743027868e-15 -6.723944577865099e-15 -180.0 -52.52456398019136 -180.0 -3.1805546814635168e-15 -2.2069531490250793e-32 7.951386703658792e-16 -8.137791919810253 -1.2414168135476168e-14 -3.0752418038424956e-15 -1.987846675914698e-16 -6.896728590703373e-34 3.975693351829396e-16
35.965561509132385 1.8779877740889788 437.03016700744627 19.55958228572037 -78.78027067995113 16.912423700151567 -3.8528309228443303 -4.573850204460264 -27.935442024449927 15.788901558521614 -4.435394019929219 27.97954539110747 124.89085804360546 3.1805546814635168e-15 22.836511636836896 -1.5902773407317584e-15 0.0 0.0 -0.465060639025355 -10.071809041278787 11.436126710182855 -16.06328311836866 -11.730352429147782 -22.703465968731283 100.39072418019806 0.0 -80.74106974323473 0.0 0.0 0.0 0.9547063112623845 -12.866022760212475 1.152443453298296 3.975693351829397e-16 6.212020862233433e-18 -2.155227684594804e-35 3.975693351829397e-16 6.212020862233433e-18 -2.155227684594804e-35 3.975693351829397e-16 6.212020862233433e-18 -2.155227684594804e-35 3.975693351829397e-16 6.212020862233433e-18 -2.155227684594804e-35 -169.02793183828294 4.939130528570834 170.5360880958288 40.050063850140944 -4.3543574083465587e-16 -3.2265130965539328e-15 -8.996552981247647e-15 73.55022000642315 6.724188056324156e-15 0.0 0.0 0.0 163.3416507804378 -10.75022136866503 -175.70206787292477 -46.5933971126322 -1.0984891356492869e-14 -9.924421339868723e-15 -180.0 -53.25585238811189 180.0 -3.1805546814635164e-15 -2.2069531490250793e-32 7.951386703658791e-16 -7.426147395444208 2.856779573913418e-15 5.837998824230024e-16 0.0 0.0 1.987846675914698e-16
35.336403858661654 1.3392734013497831 437.21074790954583 20.128783961838458 -79.18000662290648 17.375736190778905 -7.910160786894812 -0.3018918721584968 -32.085362270526545 16.816909724783184 -3.571768662939876 34.09285336760377 110.39415993935681 -1.1131941385122309e-14 27.45047485526402 0.0 0.0 0.0 -0.4012294243233553 -9.507152515378314 11.89898018464262 -16.145310040995426 -11.456736964581337 -23.22610385134566 101.06938694282749 0.0 -80.44114827452482 0.0 0.0 0.0 0.8218484007948563 -12.417693864321889 1.0180146016414175 3.975693351829396e-16 -1.3793457181406746e-33 -3.975693351829396e-16 3.975693351829396e-16 -1.3793457181406746e-33 -3.975693351829396e-16 3.975693351829396e-16 -1.3793457181406746e-33 -3.975693351829396e-16 3.975693351829396e-16 -1.3793457181406746e-33 -3.975693351829396e-16 -168.5741132637022 5.023816403231101 170.50070272460903 39.938294485150024 8.483507532245344e-15 -1.3905654232101084e-15 -2.2642765706175897e-15 76.67776165421154 -2.2642765706175897e-15 7.951386703658791e-16 0.0 0.0 162.90432654784306 -8.429080078602425 -175.6713983497623 -45.669584671836716 -2.278969082487322e-14 -1.4772720918743505e-14 180.0 -54.216336907415574 180.0 0.0 0.0 -7.951386703658792e-16 -6.790655724828656 1.2055891845223327e-14 5.161311834909126e-16 1.4908850069360235e-16 5.17254644302753e-34 3.975693351829396e-16
34.78710021972656 0.7911355253309013 437.3897890090943 21.073355842121497 -79.51629412860618 18.229779183051956 -12.345967616980484 4.342795950177154 -33.344217959031944 22.479555029416492 -4.241784061465958 35.9134419161812 106.38950133809928 -4.770832022195275e-15 26.819409094887046 0.0 0.0 0.0 -0.18337979340893334 -8.842110605494641 12.36960970275695 -16.410080194733695 -11.310101869221777 -23.631774975795878 101.55230882469522 3.1805546814635168e-15 -80.11270631580066 0.0 0.0 0.0 0.685772452513572 -12.010707103336971 0.9076729193693546 -3.975693351829396e-16 0.0 0.0 -3.975693351829396e-16 0.0 0.0 -3.975693351829396e-16 0.0 0.0 -3.975693351829396e-16 0.0 0.0 -168.06184705911548 5.164900776718839 170.7502427497418 39.554070754994115 -5.588697887743807e-15 3.195680938433374e-16 8.339294083639539e-15 72.03161497000897 -6.062367743399188e-15 -7.951386703658792e-16 0.0 0.0 162.08118841327743 -6.937960370280477 -176.33929103085214 -44.980785115259444 -6.0381477982079424e-15 -5.942265126459542e-15 180.0 -52.767491386823075 180.0 0.0 6.3611093629270335e-15 0.0 -6.247860274263742 -9.081910571830523e-15 -1.3482964496811222e-16 0.0 0.0 1.7393658414253607e-16
34.309855341911316 0.24424485974013802 437.5718427658081 22.305709080436653 -79.79157509069016 19.372414681034478 -15.59271781911641 7.7603711441839005 -32.68294720251527 26.648890112640885 -5.196765249446882 35.67537410286499 103.61598716051115 -1.5902773407317584e-15 23.521512669476664 3.1805546814635168e-15 0.0 0.0 0.17260287451524853 -8.097278606302444 12.829865993202882 -16.860404752844364 -11.288490874012686 -23.817411091931014 101.87748847690487 -1.2722218725854067e-14 -79.72608026997739 0.0 0.0 0.0 0.555550889346021 -11.643499948671343 0.8239452505032642 -3.975693351829396e-16 0.0 0.0 -3.975693351829396e-16 0.0 0.0 -3.975693351829396e-16 0.0 0.0 -3.975693351829396e-16 0.0 0.0 -167.58036145389005 4.93105158922922 171.23733284735607 39.164670927994656 -1.1814472785727966e-15 3.796092722225498e-15 1.2630865392898533e-14 65.41868440259375 -1.3781738965531398e-14 0.0 0.0 0.0 161.24248879102865 -6.003238547393573 -177.22316208676793 -44.61393593309259 -5.764887519647723e-15 2.7915726510190584e-15 180.0 -51.396012141723034 180.0 0.0 0.0 7.951386703658792e-16 -5.825876725040195 1.270920406506486e-14 -5.973136947633365e-16 0.0 0.0 -1.4908850069360235e-16
33.9156417131424 -0.2848895218223333 437.7496341705322 23.920268040366818 -80.02193920024231 20.929194299549586 -16.263143423364575 8.642470570759553 -30.311455119403085 27.068812973947264 -6.424013041471495 32.874344258148376 105.39684138512158 -2.3854160110976376e-15 10.531814091535285 3.1805546814635168e-15 0.0 0.0 0.6748249290256065 -7.2499777275377335 13.228386767052347 -17.90880424038595 -11.645219748370758 -24.28860904265583 102.42126866541453 -6.3611093629270335e-15 -79.71013979502072 6.361109362927033e-15 -8.827812596100317e-32 -1.5902773407317582e-15 0.4253226137501155 -11.312572245428083 0.7655001105549264 0.0 0.0 0.0 0.0 0.0 0.0 0.0 0.0 0.0 0.0 0.0 0.0 -167.2007677350117 4.679544060865452 171.76647885816342 38.71098445488521 5.144628198433174e-15 3.2494119611034177e-15 4.528587412952365e-15 58.8376484749089 -8.030777538262156e-15 -1.5902773407317584e-15 0.0 0.0 160.3858165087769 -5.351499277331677 -178.18418002694952 -44.439240443744204 1.05386256665312e-14 2.5871015418213208e-15 180.0 -49.78099743032839 180.0 -3.1805546814635168e-15 3.975693351829396e-16 -7.951386703658792e-16 -5.503725424850097 7.202885123680145e-16 -1.0599565011078248e-15 2.981770013872047e-16 5.17254644302753e-34 1.987846675914698e-16
33.597101104259494 -0.7986293211579323 437.9218912124634 25.856558618423076 -80.2242492578675 22.826385587598843 -14.46501378527038 7.062367800788364 -26.29903505479352 23.498370323903018 -7.486735907492533 25.160686547864564 -69.85904797933563 -3.1805546814635168e-15 6.662122545848795 3.1805546814635168e-15 0.0 0.0 1.3419461532104275 -6.295633924910972 13.560656048099544 -19.271195841862024 -12.189442539990518 -24.878130828300545 102.96895475347218 3.1805546814635168e-15 -79.8629302852061 0.0 0.0 -1.5902773407317584e-15 0.31373300913457464 -11.000468171109778 0.7201615109031362 -3.975693351829396e-16 0.0 0.0 -3.975693351829396e-16 0.0 0.0 -3.975693351829396e-16 0.0 0.0 -3.975693351829396e-16 0.0 0.0 -166.97892311098238 4.3451553255003645 172.28697647742447 38.32975868364874 1.7943219186843322e-14 -2.8689894139280976e-15 1.0312571385898315e-15 49.65067285004131 -2.2292554712308446e-15 1.5902773407317584e-15 6.3611093629270335e-15 -3.1805546814635168e-15 159.5227820286005 -4.846405443369717 -179.17794970437268 -44.346674940848764 6.579082125628676e-15 4.398579172222929e-15 -180.0 -46.93330866205835 -180.0 0.0 0.0 0.0 -5.258158379969928 1.2997319759189959e-15 1.3531433228002923e-15 -4.969616689786744e-16 -3.1060104311167156e-18 9.939233379573489e-17
